<svg xmlns="http://www.w3.org/2000/svg" viewBox="3260 9 160 20.3"><defs><style>.a{fill:#fff;}</style></defs><g transform="translate(3260 9)"><circle cx="10.1" cy="10.1" r="10.1" transform="translate(0 0)"/><path class="a" d="M7.5,2.7H9.3v2H11v-2h1.8V8.3H11V6.2H9.3V8.3H7.5Z"/><path class="a" d="M7.5,11.9v1.4H9.1v4.2h2V13.3h1.6V11.9H7.5Z"/><path class="a" d="M7.4,10.8V9.4h5.3v1.4"/><rect width="20.2" height="20.2" transform="translate(23.2 0.1)"/><rect class="a" width="19.2" height="19.2" transform="translate(43.2 0.5)"/><path d="M61.9,19.2H43.7V1H61.9V19.2m1,1V0H42.7V20.2Z"/><rect width="20.2" height="20.2" transform="translate(62.3)"/><rect class="a" width="19.2" height="19.2" transform="translate(81.9 0.5)"/><path d="M100.6,19.2H82.4V1h18.2V19.2m1,1V0H81.4V20.2Z"/><rect class="a" width="19.2" height="19.2" transform="translate(101.5 0.5)"/><path d="M120.2,19.2H102V1h18.2V19.2m1,1V0H101V20.2Z"/><rect class="a" width="19.2" height="19.2" transform="translate(140.3 0.5)"/><path d="M159,19.2H140.8V1H159V19.2m1,1V0H139.8V20.2Z"/><rect width="20.2" height="20.2" transform="translate(120.8 0.1)"/><path class="a" d="M29,4.2h4.3c2.5,0,4.5.6,4.5,3a2.984,2.984,0,0,1-1.5,2.6v.1a2.7,2.7,0,0,1,2.1,2.8c0,2.5-2.1,3.5-4.7,3.5H29Zm4.2,4.6c1,0,1.5-.5,1.5-1.2s-.5-1-1.5-1H32.1V8.8Zm.2,4.9c1.2,0,1.8-.4,1.8-1.3s-.6-1.2-1.8-1.2H32.1v2.5Z"/><path d="M48,10.3V4.2h3.2v6.5c0,2.1.5,2.9,1.8,2.9,1.2,0,1.8-.8,1.8-2.9V4.2h3v6.2c0,4.1-1.5,6-4.9,6C49.7,16.3,48,14.4,48,10.3Z"/><path class="a" d="M68.4,4.2h3.1v9.3H76v2.6H68.3V4.2Z"/><path d="M86,4.2h3.4L91.2,9l.6,2.1h.1L92.5,9l1.7-4.9h3.4V16H94.7V12.5c0-1.2.3-3.1.4-4.2H95l-1,2.9-1.5,3.9H90.8l-1.5-3.9-1-2.9h-.1c.1,1.2.4,3,.4,4.2V16H85.8V4.2Z"/><path d="M109.4,4.2h3.8l3.6,11.9h-3.3l-.6-2.5h-3.3l-.6,2.5h-3.2Zm.7,6.9h2.2l-.2-.8c-.3-1.1-.6-2.6-.9-3.8h-.1c-.3,1.2-.5,2.6-.8,3.8Z"/><path class="a" d="M126.1,10.2c0-4,2.7-6.3,5.8-6.3a5.061,5.061,0,0,1,3.7,1.6l-1.6,2a2.876,2.876,0,0,0-2-.9c-1.4,0-2.6,1.3-2.6,3.4,0,2.2,1,3.5,2.6,3.5a3.719,3.719,0,0,0,2.2-1l1.6,2a4.977,4.977,0,0,1-3.9,1.8C128.7,16.3,126.1,14.3,126.1,10.2Z"/><path d="M148.3,4.2h3.8l3.6,11.9h-3.3l-.6-2.5h-3.3l-.6,2.5h-3.2Zm.7,6.9h2.2l-.2-.8c-.3-1.1-.6-2.6-.9-3.8H150c-.3,1.2-.5,2.6-.8,3.8Z"/></g></svg>