<svg id="Layer_1" data-name="Layer 1" xmlns="http://www.w3.org/2000/svg" width="14" height="14" viewBox="0 0 14 14"><defs><style>.cls-1{fill:#fff;}</style></defs><title>ara_ikon</title><path class="cls-1" d="M14.8,14l-2.5-2.5a9.5,9.5,0,0,0,1-1.7,6,6,0,0,0,0-4.8h0a6.6,6.6,0,0,0-1.4-2h0A6,6,0,0,0,9.8,1.5h0A6.4,6.4,0,0,0,7.4,1,6,6,0,0,0,2.9,2.9a6.6,6.6,0,0,0-1.4,2A7,7,0,0,0,1,7.4a6.4,6.4,0,0,0,.5,2.4h0a6,6,0,0,0,1.4,2.1h0a6.6,6.6,0,0,0,2,1.4h0a7,7,0,0,0,2.5.5,6.4,6.4,0,0,0,2.4-.5,9.5,9.5,0,0,0,1.7-1L14,14.8a.5.5,0,0,0,.8,0,.5.5,0,0,0,0-.8Zm-3.7-2.9h0a6.2,6.2,0,0,1-1.7,1.1,4.5,4.5,0,0,1-2,.4,4.5,4.5,0,0,1-2-.4h0a6.2,6.2,0,0,1-1.7-1.1h0A4.5,4.5,0,0,1,2.6,9.4h0a3.8,3.8,0,0,1-.4-1.9,4.5,4.5,0,0,1,.4-2A4.5,4.5,0,0,1,3.7,3.7,5.4,5.4,0,0,1,7.4,2.2a4.5,4.5,0,0,1,2,.4h0a4.5,4.5,0,0,1,1.7,1.1h0a6.2,6.2,0,0,1,1.1,1.7h0a4.5,4.5,0,0,1,.4,2,4.5,4.5,0,0,1-.4,2,6.2,6.2,0,0,1-1.1,1.7ZM5.8,3.6h0L5.1,4l-.6.5L4,5.1a1.6,1.6,0,0,0-.4.7c-.1.2,0,.4.2.4s.4,0,.4-.1a3.3,3.3,0,0,1,.3-.6h0c.2-.2.3-.4.5-.5H5c.1-.2.3-.3.5-.5l.6-.3c.1-.1.2-.3.1-.4s-.2-.3-.4-.2ZM11.2,7h0a.4.4,0,0,0-.4.4,5.9,5.9,0,0,1-.2,1.3h0a4.4,4.4,0,0,1-.8,1.1l-1.1.8-1.3.2a.4.4,0,0,0-.4.4c0,.2.2.3.4.3A4.5,4.5,0,0,0,9,11.2a3.8,3.8,0,0,0,1.3-.9A3.8,3.8,0,0,0,11.2,9h0a4.5,4.5,0,0,0,.3-1.6c0-.2-.1-.4-.3-.4Z" transform="translate(-1 -1)"/></svg>