<?xml version="1.0" encoding="utf-8"?>
<!-- Generator: Adobe Illustrator 21.1.0, SVG Export Plug-In . SVG Version: 6.00 Build 0)  -->
<svg version="1.1" id="Ebene_1" xmlns="http://www.w3.org/2000/svg" xmlns:xlink="http://www.w3.org/1999/xlink" x="0px" y="0px"
	 viewBox="0 0 159 50" style="enable-background:new 0 0 159 50;" preserveAspectRatio="xMidYMid meet" xml:space="preserve">
<style type="text/css">
	.st0{fill:none;}
	.st1{fill:#FFFFFF;}
</style>
<g id="BoundingBox">
	<rect class="st0" width="159" height="50"/>
</g>
<g id="HRS_Bild-Wortmarke">
	<g>
		<g>
			<path class="st1" d="M21.9,0.2C9.8,0.2,0.1,9.9,0.1,22s9.8,21.8,21.8,21.8c12.1,0,21.8-9.8,21.8-21.8S34,0.2,21.9,0.2z
				 M17.5,17.8L17.5,17.8l13.9,2.7c0.4,0.1,0.7,0.4,0.7,0.7v1.1L25,25.6v-0.8c0-0.9-0.6-1.5-1.9-1.8l-12.9-3.1L17.5,17.8z
				 M35.3,26.6c-1,0-1-0.6-1-0.6v-0.3L23,32l0,1.4c0,0,0.1,0.7-0.9,0.7C21,34,21,33.4,21,33.4v-1.2L8.4,27.8v0.6
				c0,0,0.1,0.6-0.9,0.6c-1.1,0-1-0.6-1-0.6v-7.2c0,0,0-0.7,0.8-0.4l14.9,3.9c0.6,0.2,0.8,0.7,0.8,1.3c0,0.2,0,2.7,0,2.7l11.1-5.5
				v-2.6c0-0.7-0.3-1.1-0.9-1.2l-13.7-2.5v-5.1c0-0.4,0.2-0.5,0.4-0.4c0.1,0,15.2,1.8,15.2,1.8c0.8,0.1,0.8,0.3,0.8,1.2l0,11.8
				C36.1,26.1,36.1,26.6,35.3,26.6z"/>
		</g>
	</g>
	<path class="st1" d="M144.2,37.5c-6.8,0-10.7-0.9-13.9-2l1.5-5.7c3.1,0.8,6.9,1.6,12.5,1.6c4.3,0,6.2-0.1,7.6-0.5
		c1.1-0.3,1.8-0.8,1.8-2.6c0-1.5-0.4-2.2-1.5-2.4c-1.2-0.3-3.1-0.4-5.3-0.6c-3.4-0.3-7.5-0.7-11.3-1.5c-1.5-0.4-2.7-1-3.6-2.1
		c-1.2-1.4-1.8-3.6-1.8-6.4c0-5.7,2.7-7.2,5.4-7.9c2.4-0.7,4.7-0.9,9.6-0.9c5.3,0,9.7,1,12.5,1.8l-1.4,5.8
		c-1.6-0.4-5.6-1.5-11.6-1.5c-3.3,0-5.9,0.2-7.2,0.4c-1.2,0.3-1.8,1-1.8,2.2c0,1.3,0.3,2.3,1.5,2.5c1.2,0.3,3.9,0.6,7,0.9
		c3.4,0.3,7.3,0.7,10,1.2c0.9,0.2,2.3,0.5,3.3,1.8c0.5,0.6,0.9,1.4,1.2,2.4c0.3,1.1,0.4,2.3,0.4,3.8c0,1.5-0.2,2.8-0.5,3.9
		c-0.3,1-0.7,1.8-1.3,2.5c-1.1,1.4-2.6,2-3.7,2.3C151.2,37.2,148.1,37.5,144.2,37.5z M127,36.7h-7.9l-6.6-10.2H104v10.2h-7.3V7.3
		H114c1.9,0,4.6,0.1,6.5,0.6c2.1,0.6,3.5,1.5,4.4,2.8c1,1.4,1.5,3.4,1.5,6.2c0,2.5-0.5,4.5-1.5,6.1c-0.8,1.3-2,2.2-3.4,2.7
		c-0.5,0.2-1.1,0.3-1.7,0.3c-0.1,0-0.2,0-0.4,0l-0.1,0L127,36.7z M104,12.8v8.5h10.4c0.5,0,2.1,0,2.9-0.2c0.8-0.2,1.3-0.7,1.7-1.4
		c0.3-0.7,0.5-1.6,0.5-2.8c0-1-0.1-1.8-0.4-2.4c-0.3-0.7-0.9-1.2-1.7-1.5c-0.6-0.2-1.6-0.3-3-0.3C114.3,12.8,104,12.8,104,12.8z
		 M91,36.7h-7.3V25.1H66.3v11.6H59V7.3h7.3v11.8h17.4V7.3H91V36.7z"/>
</g>
</svg>
