<svg id="Layer_1" data-name="Layer 1" xmlns="http://www.w3.org/2000/svg" viewBox="0 0 13.893 16"><defs><style>.cls-1{fill:#fff;}</style></defs><title>ikon_login</title><path class="cls-1" d="M1.2848,15.3888a.6157.6157,0,0,1-1.2313-.0045,3.4761,3.4761,0,0,1,1.0918-2.5717A5.0709,5.0709,0,0,1,3.992,11.5335a.6429.6429,0,0,0,.3711-.1618.4344.4344,0,0,0,.1091-.2007A3.9038,3.9038,0,0,1,3.4067,9.4858a3.812,3.812,0,0,0-.262-.5633l-.013-.0045-.0045-.0045H3.1228V8.91a3.2887,3.2887,0,0,1-.8074-1.1879,1.7887,1.7887,0,0,1,.0478-1.563,4.7714,4.7714,0,0,1-.2311-1.4933,5.9515,5.9515,0,0,1,.3054-1.9645l.0264-.0523A3.7036,3.7036,0,0,1,3.9133.71,4.5521,4.5521,0,0,1,6.42.0026,6.5651,6.5651,0,0,1,7.7426.0808,2.0522,2.0522,0,0,1,9.1179.8274a1.97,1.97,0,0,1,1.65.8253A4.8268,4.8268,0,0,1,11.7812,3.74,4.0927,4.0927,0,0,1,11.79,5.006a7.2967,7.2967,0,0,1-.2271,1.0828,1.785,1.785,0,0,1,.0961,1.6243,3.2676,3.2676,0,0,1-.8119,1.192l-.0089.0085-.0085.0089V8.927a2.3932,2.3932,0,0,0-.2709.5589A3.8,3.8,0,0,1,9.5238,11.145a.4375.4375,0,0,0,.118.2267.6415.6415,0,0,0,.3711.1618,5.0736,5.0736,0,0,1,2.8422,1.2791,3.4877,3.4877,0,0,1,1.0914,2.5762.6112.6112,0,1,1-1.2224-.0045,2.2667,2.2667,0,0,0-.72-1.6811,3.6644,3.6644,0,0,0-2.1-.9429,1.8627,1.8627,0,0,1-1.1356-.524c-.3317-.3232-.803-1.5411-.1873-1.93a2.4533,2.4533,0,0,0,.8383-1.28,2.69,2.69,0,0,1,.5893-1.0261V8.01l.0045-.0089a1.9617,1.9617,0,0,0,.4932-.7158.5646.5646,0,0,0-.0434-.6112h.004a.8052.8052,0,0,1-.144-.7252,5.8951,5.8951,0,0,0,.249-1.1,3.1871,3.1871,0,0,0-.0045-.9344,3.3711,3.3711,0,0,0-.7292-1.4674c-.21-.2486-.4368-.4279-.6286-.3925a1.0972,1.0972,0,0,1-.6157-.0876A1.1458,1.1458,0,0,1,8.166,1.6l-.0393-.0438a.9289.9289,0,0,0-.6027-.275,5.4253,5.4253,0,0,0-1.0784-.0478A3.282,3.282,0,0,0,4.59,1.7315a2.5323,2.5323,0,0,0-.9738,1.3229l-.0174.0478a4.7253,4.7253,0,0,0-.2446,1.5456h0A3.6754,3.6754,0,0,0,3.59,5.94a.56.56,0,0,1,.0657.4015c-.0657.4019-.3885.4194-.1967.9434a2.1663,2.1663,0,0,0,.4846.7073l.0174.0259H3.97a2.6788,2.6788,0,0,1,.5718,1.0086,2.6622,2.6622,0,0,0,.8472,1.297.5938.5938,0,0,1,.3232.5414,1.7762,1.7762,0,0,1-.4806,1.3707,1.8389,1.8389,0,0,1-1.1437.524,3.6314,3.6314,0,0,0-2.087.9429,2.25,2.25,0,0,0-.7162,1.6855Z" transform="translate(-0.0535 0)"/></svg>